<?xml version="1.0" encoding="utf-8"?>
<!-- Generator: Adobe Illustrator 26.0.3, SVG Export Plug-In . SVG Version: 6.00 Build 0)  -->
<svg version="1.1" baseProfile="tiny" id="Ebene_1" xmlns="http://www.w3.org/2000/svg" xmlns:xlink="http://www.w3.org/1999/xlink"
	 x="0px" y="0px" width="501px" height="78.8px" viewBox="0 0 501 78.8" overflow="visible" xml:space="preserve">
<g>
	<path fill="#245E39" d="M2.7,26.3c0.5,0.2,1,0.4,1.7,0.7c0.7,0.2,1.4,0.4,2.2,0.6c0.8,0.2,1.5,0.3,2.2,0.3c1.2,0,2.2-0.1,3-0.4
		c0.8-0.3,1.4-0.7,1.8-1.2c0.4-0.5,0.6-1.2,0.6-1.9c0-0.8-0.2-1.5-0.7-2.1c-0.5-0.6-1.2-1.1-2.2-1.7c-0.9-0.5-2.1-1.1-3.4-1.6
		c-1.1-0.5-2-1-2.8-1.4c-0.8-0.5-1.4-1-2-1.5c-0.5-0.6-0.9-1.2-1.2-1.9c-0.3-0.7-0.4-1.5-0.4-2.5c0-1.2,0.3-2.3,1-3.2
		c0.7-1,1.6-1.7,2.8-2.3c1.2-0.6,2.6-0.8,4.3-0.8c1.2,0,2.4,0.2,3.6,0.5c1.1,0.3,2.1,0.7,2.9,1.1l-1.2,2.7C14.5,9.4,14,9.2,13.5,9
		c-0.5-0.2-1-0.4-1.7-0.5c-0.6-0.1-1.3-0.2-2.1-0.2c-1.4,0-2.5,0.3-3.5,0.8c-0.9,0.5-1.4,1.3-1.4,2.4c0,0.8,0.2,1.5,0.7,2.1
		c0.5,0.6,1.2,1.1,2.1,1.7c1,0.5,2.1,1.1,3.5,1.8c1,0.5,1.9,0.9,2.7,1.4c0.8,0.5,1.4,1,2,1.5s1,1.2,1.2,1.9c0.3,0.7,0.4,1.5,0.4,2.4
		c0,1.3-0.3,2.4-1,3.4c-0.7,1-1.7,1.8-3,2.4c-1.3,0.6-2.9,0.9-4.8,0.9c-0.5,0-1.1-0.1-1.8-0.2c-0.7-0.1-1.4-0.2-2.1-0.4
		s-1.3-0.4-1.9-0.6c-0.6-0.2-1-0.4-1.2-0.7L2.7,26.3z"/>
	<path fill="#245E39" d="M22,30.4V5.8H29c1.7,0,3.3,0.3,4.7,0.8c1.4,0.5,2.5,1.3,3.3,2.5c0.8,1.1,1.2,2.6,1.2,4.4
		c0,1.4-0.3,2.6-0.8,3.5c-0.5,1-1.2,1.8-2.1,2.4c-0.9,0.6-1.9,1.1-3.1,1.4c-1.2,0.3-2.4,0.5-3.7,0.5h-3.2v9H22z M25.5,8.7v9.7h3.4
		c1.1,0,2.1-0.2,3-0.5s1.6-0.8,2.1-1.6c0.5-0.7,0.8-1.7,0.9-2.8c0-1.3-0.2-2.2-0.7-2.9s-1.1-1.2-2-1.5c-0.8-0.3-1.9-0.5-3-0.5H25.5z
		"/>
	<path fill="#245E39" d="M45.8,21.3c0,1.4,0.3,2.6,0.8,3.6c0.5,1,1.2,1.8,2.2,2.3c0.9,0.5,2,0.8,3.2,0.8c1.3,0,2.3-0.3,3.2-0.8
		s1.6-1.3,2.1-2.3c0.5-1,0.7-2.2,0.7-3.5V5.8h3.5v15.8c0,1.7-0.4,3.3-1.2,4.7c-0.8,1.4-1.9,2.5-3.3,3.3c-1.4,0.8-3.1,1.2-5.1,1.2
		c-2,0-3.6-0.4-5.1-1.2c-1.4-0.8-2.5-1.9-3.3-3.3c-0.8-1.4-1.2-3-1.2-4.7V5.8h3.5V21.3z"/>
	<path fill="#245E39" d="M74.7,5.8c1.7,0,3.3,0.2,4.7,0.7c1.4,0.5,2.5,1.3,3.3,2.4c0.8,1.1,1.2,2.5,1.2,4.2c0,1.6-0.4,3-1.2,4
		c-0.8,1.1-1.8,1.9-3.1,2.4l6.2,10.8h-3.8l-5.5-9.9c-0.2,0-0.5,0-1,0.1c-0.5,0-0.9,0-1.2,0h-3.2v9.8h-3.5V5.8H74.7z M71.1,8.7v9h3.4
		c1.1,0,2.1-0.1,2.9-0.4c0.9-0.3,1.6-0.8,2.1-1.4s0.8-1.5,0.8-2.6c0-1.2-0.2-2.1-0.7-2.7c-0.5-0.7-1.1-1.1-2-1.4
		c-0.9-0.3-1.9-0.4-3-0.4H71.1z"/>
	<path fill="#245E39" d="M89.5,30.4V5.8h13.9l0.5,2.7H92.9v8.1h8.4l0.5,2.7h-8.8v8.5h11.7l0.5,2.7H89.5z"/>
	<path fill="#245E39" d="M109.1,30.4V5.8h3.1l11,15.5l1.7,2.7V5.8h3.5v24.6h-3.1l-11.4-16.2l-1.4-2.2v18.3H109.1z"/>
	<path fill="#245E39" d="M158.3,30.4h-15V5.8h3.5v21.9h11.1L158.3,30.4z"/>
	<path fill="#245E39" d="M161.9,30.4V5.8h13.9l0.5,2.7h-10.8v8.1h8.4l0.5,2.7h-8.8v8.5H177l0.5,2.7H161.9z"/>
	<path fill="#245E39" d="M180.9,26.3c0.5,0.2,1,0.4,1.7,0.7c0.7,0.2,1.4,0.4,2.2,0.6c0.8,0.2,1.5,0.3,2.2,0.3c1.2,0,2.2-0.1,3-0.4
		c0.8-0.3,1.4-0.7,1.8-1.2c0.4-0.5,0.6-1.2,0.6-1.9c0-0.8-0.2-1.5-0.7-2.1c-0.5-0.6-1.2-1.1-2.2-1.7c-0.9-0.5-2.1-1.1-3.4-1.6
		c-1.1-0.5-2-1-2.8-1.4c-0.8-0.5-1.4-1-2-1.5c-0.5-0.6-0.9-1.2-1.2-1.9c-0.3-0.7-0.4-1.5-0.4-2.5c0-1.2,0.3-2.3,1-3.2
		c0.7-1,1.6-1.7,2.8-2.3c1.2-0.6,2.6-0.8,4.3-0.8c1.2,0,2.4,0.2,3.6,0.5c1.1,0.3,2.1,0.7,2.9,1.1l-1.2,2.7c-0.4-0.2-0.9-0.4-1.4-0.6
		c-0.5-0.2-1-0.4-1.7-0.5c-0.6-0.1-1.3-0.2-2.1-0.2c-1.4,0-2.5,0.3-3.5,0.8c-0.9,0.5-1.4,1.3-1.4,2.4c0,0.8,0.2,1.5,0.7,2.1
		c0.5,0.6,1.2,1.1,2.1,1.7c1,0.5,2.1,1.1,3.5,1.8c1,0.5,1.9,0.9,2.7,1.4c0.8,0.5,1.4,1,2,1.5s1,1.2,1.2,1.9c0.3,0.7,0.4,1.5,0.4,2.4
		c0,1.3-0.3,2.4-1,3.4c-0.7,1-1.7,1.8-3,2.4c-1.3,0.6-2.9,0.9-4.8,0.9c-0.5,0-1.1-0.1-1.8-0.2c-0.7-0.1-1.4-0.2-2.1-0.4
		s-1.3-0.4-1.9-0.6c-0.6-0.2-1-0.4-1.2-0.7L180.9,26.3z"/>
	<path fill="#245E39" d="M200.2,30.4V5.8h7.7c1.7,0,3.1,0.2,4.4,0.6c1.3,0.4,2.3,1.1,3,2.1s1.1,2.3,1.1,3.9c0,1.1-0.3,2-1,2.8
		c-0.6,0.8-1.4,1.4-2.2,2c1.3,0.5,2.4,1.3,3.2,2.3c0.8,1,1.2,2.3,1.2,3.9c0,1.2-0.2,2.3-0.7,3.2c-0.4,0.9-1.1,1.6-1.9,2.2
		c-0.8,0.6-1.8,1-2.8,1.3c-1.1,0.3-2.3,0.4-3.6,0.4H200.2z M203.7,8.7v7.6h3.4c1.1,0,2-0.2,2.9-0.4c0.9-0.2,1.6-0.6,2.1-1.2
		c0.5-0.6,0.8-1.3,0.8-2.2c0-1-0.2-1.8-0.6-2.3c-0.4-0.5-1-0.9-1.8-1.1c-0.8-0.2-1.7-0.3-2.7-0.3H203.7z M203.7,19.1v8.4h4.9
		c1.1,0,2-0.1,2.9-0.4c0.8-0.3,1.5-0.7,2-1.3s0.7-1.4,0.7-2.4c0-1.5-0.5-2.6-1.4-3.3c-1-0.7-2.2-1-3.8-1H203.7z"/>
	<path fill="#245E39" d="M231.5,5.8l9.5,24.4l-3.4,0.5l-2.6-6.9h-10l-2.5,6.6h-3.4l9.3-24.6H231.5z M229.9,10.5L226,21h8L229.9,10.5
		z"/>
	<path fill="#245E39" d="M251.7,5.8c1.7,0,3.3,0.2,4.7,0.7c1.4,0.5,2.5,1.3,3.3,2.4c0.8,1.1,1.2,2.5,1.2,4.2c0,1.6-0.4,3-1.2,4
		s-1.8,1.9-3.1,2.4l6.2,10.8h-3.8l-5.5-9.9c-0.2,0-0.5,0-1,0.1c-0.5,0-0.9,0-1.2,0h-3.2v9.8h-3.5V5.8H251.7z M248.1,8.7v9h3.4
		c1.1,0,2.1-0.1,2.9-0.4c0.9-0.3,1.6-0.8,2.1-1.4c0.5-0.7,0.8-1.5,0.8-2.6c0-1.2-0.2-2.1-0.7-2.7c-0.5-0.7-1.1-1.1-2-1.4
		c-0.9-0.3-1.9-0.4-3-0.4H248.1z"/>
	<path fill="#245E39" d="M285.1,22.5l-6.8-9.5v17.4h-3.5V5.8h2.1l8.6,12.2l8.2-12.2h2.2v24.6h-3.5V13.3l-6.1,9L285.1,22.5z"/>
	<path fill="#245E39" d="M312,5.8l9.5,24.4l-3.4,0.5l-2.6-6.9h-10l-2.5,6.6h-3.4l9.3-24.6H312z M310.3,10.5L306.4,21h8L310.3,10.5z"
		/>
	<path fill="#245E39" d="M340.1,9.3c-0.6-0.2-1.1-0.4-1.6-0.5c-0.5-0.1-1-0.3-1.6-0.3c-0.6-0.1-1.2-0.1-2-0.1
		c-1.5,0-2.8,0.4-4.1,1.2c-1.2,0.8-2.2,2-2.9,3.5c-0.7,1.5-1.1,3.2-1.1,5.2c0,1.3,0.2,2.6,0.5,3.7c0.3,1.2,0.8,2.2,1.5,3.1
		s1.5,1.6,2.4,2.1s2,0.8,3.3,0.8c1.2,0,2.2-0.1,3.1-0.3c0.9-0.2,1.6-0.5,2.3-0.8l1.3,2.6c-0.5,0.3-1.2,0.5-2,0.8
		c-0.8,0.2-1.6,0.4-2.4,0.5c-0.8,0.1-1.6,0.2-2.3,0.2c-1.9,0-3.5-0.3-5-1c-1.4-0.7-2.6-1.6-3.6-2.7c-1-1.2-1.7-2.5-2.2-4
		c-0.5-1.5-0.7-3.1-0.7-4.9c0-1.9,0.3-3.6,0.8-5.1c0.5-1.6,1.3-2.9,2.3-4.1s2.2-2.1,3.7-2.7c1.4-0.7,3.1-1,4.9-1
		c0.5,0,1.1,0,1.9,0.1c0.8,0.1,1.5,0.3,2.3,0.5c0.8,0.2,1.5,0.5,2.1,0.9L340.1,9.3z"/>
	<path fill="#245E39" d="M359.7,30.4v-11h-10.9v11h-3.5V5.8l3.5-0.2v11h10.9V5.8h3.5v24.6H359.7z"/>
	<path fill="#245E39" d="M369.6,30.4V5.8h13.9l0.5,2.7h-10.8v8.1h8.4l0.5,2.7h-8.8v8.5h11.7l0.5,2.7H369.6z"/>
	<path fill="#245E39" d="M389.2,30.4V5.8h3.1l11,15.5l1.7,2.7V5.8h3.5v24.6h-3.1l-11.4-16.2l-1.4-2.2v18.3H389.2z"/>
	<path fill="#245E39" d="M413.6,29.7c-0.4-0.4-0.6-0.9-0.6-1.5c0-0.6,0.2-1.1,0.6-1.5c0.4-0.4,1-0.6,1.6-0.6c0.6,0,1.1,0.2,1.5,0.6
		c0.4,0.4,0.6,0.9,0.6,1.5c0,0.6-0.2,1.2-0.6,1.6s-0.9,0.6-1.5,0.6C414.5,30.4,414,30.2,413.6,29.7z"/>
</g>
<g>
	<path fill="#245E39" d="M11.8,70H2.1V54.1h2.2v14.1h7.2L11.8,70z"/>
	<path fill="#245E39" d="M13.8,59.4c0.3-0.2,0.7-0.4,1.2-0.5c0.5-0.1,1-0.3,1.5-0.3c0.5-0.1,0.9-0.1,1.2-0.1c0.9,0,1.7,0.2,2.3,0.5
		c0.7,0.3,1.2,0.8,1.6,1.4s0.6,1.3,0.6,2V70h-1.6l-0.3-1.1c-0.4,0.3-0.9,0.7-1.5,0.9c-0.6,0.3-1.2,0.4-1.8,0.4c-1.3,0-2.3-0.3-3-1
		s-1-1.5-1-2.5c0-1.1,0.4-2,1.2-2.6c0.8-0.6,1.8-0.9,3-0.9h2.7v-0.1c0-0.8-0.2-1.4-0.5-1.9c-0.3-0.5-0.9-0.8-1.8-0.8
		c-0.7,0-1.3,0.1-1.8,0.2c-0.5,0.2-1,0.3-1.4,0.5L13.8,59.4z M15.3,67.6c0.1,0.3,0.3,0.5,0.6,0.7c0.3,0.2,0.6,0.3,1,0.3
		c0.6,0,1.1-0.1,1.6-0.4s1-0.6,1.3-1.1v-2.3h-2.7c-0.7,0-1.2,0.2-1.6,0.6c-0.4,0.4-0.5,0.9-0.5,1.4C15.1,67,15.2,67.3,15.3,67.6z"/>
	<path fill="#245E39" d="M25.1,70V53.8l2.2-0.3v15l-1,1.5H25.1z M25.8,60.4c0.3-0.5,0.7-0.8,1.2-1.1c0.5-0.3,1-0.5,1.4-0.7
		c0.5-0.1,0.9-0.2,1.2-0.2c1.2,0,2.2,0.2,3,0.7c0.8,0.5,1.5,1.2,1.9,2.1s0.7,2,0.7,3.2c0,1.2-0.2,2.2-0.7,3.1
		c-0.5,0.9-1.1,1.6-2,2.1s-1.8,0.7-3,0.7c-0.3,0-0.7-0.1-1.2-0.2c-0.5-0.1-1-0.3-1.4-0.6c-0.5-0.3-0.9-0.7-1.2-1.2l0.7-1.6
		c0.5,0.6,1,1,1.5,1.3c0.5,0.3,1.1,0.4,1.8,0.4c0.7,0,1.3-0.2,1.8-0.5s0.9-0.8,1.1-1.4c0.3-0.6,0.4-1.3,0.4-2c0-0.8-0.1-1.5-0.4-2.1
		c-0.3-0.6-0.6-1.1-1.1-1.5s-1.1-0.5-1.8-0.5c-0.7,0-1.3,0.1-1.7,0.4c-0.5,0.3-1,0.7-1.4,1.3L25.8,60.4z"/>
	<path fill="#245E39" d="M42.3,70.3c-1.1,0-2.1-0.3-3-0.8c-0.8-0.5-1.5-1.2-1.9-2.1c-0.5-0.9-0.7-1.9-0.7-3.1c0-1.2,0.3-2.2,0.7-3.1
		c0.5-0.9,1.1-1.6,2-2.1c0.8-0.5,1.9-0.8,3-0.8s2.2,0.3,3,0.8c0.8,0.5,1.5,1.2,1.9,2.1c0.5,0.9,0.7,1.9,0.7,3.1
		c0,1.2-0.2,2.2-0.7,3.1c-0.5,0.9-1.1,1.6-2,2.1C44.5,70,43.5,70.3,42.3,70.3z M42.3,68.4c0.7,0,1.3-0.2,1.8-0.5
		c0.5-0.4,0.9-0.8,1.2-1.4c0.3-0.6,0.4-1.3,0.4-2c0-0.8-0.1-1.5-0.4-2.1c-0.3-0.6-0.6-1.1-1.1-1.4c-0.5-0.3-1.1-0.5-1.8-0.5
		c-0.7,0-1.3,0.2-1.8,0.5c-0.5,0.4-0.9,0.8-1.2,1.4c-0.3,0.6-0.4,1.3-0.4,2c0,0.8,0.1,1.5,0.4,2.1c0.3,0.6,0.6,1.1,1.1,1.5
		C41,68.2,41.6,68.4,42.3,68.4z"/>
	<path fill="#245E39" d="M50.1,70V58.7h1.3l0.7,1.8c0.3-0.2,0.7-0.5,1.1-0.8c0.4-0.3,0.9-0.5,1.4-0.7c0.5-0.2,0.9-0.3,1.3-0.3
		l0.5,1.8c-0.4,0-0.9,0.1-1.3,0.3c-0.5,0.2-1,0.4-1.4,0.7c-0.5,0.3-0.9,0.6-1.2,1V70H50.1z"/>
	<path fill="#245E39" d="M71.6,59.9l-6.4,8.3h6.2l0.2,1.8h-9l-0.3-1.2l6.3-8.3h-5.4l-0.5-1.8h8.6L71.6,59.9z"/>
	<path fill="#245E39" d="M83.2,58.7V70h-1.6l-0.4-1.5c-0.4,0.3-0.8,0.7-1.3,0.9c-0.5,0.3-1,0.5-1.5,0.7c-0.5,0.2-1,0.2-1.5,0.2
		c-0.9,0-1.5-0.2-2.1-0.5c-0.5-0.4-0.9-0.9-1.2-1.5c-0.2-0.6-0.4-1.4-0.4-2.2v-7.5h2.2v7.2c0,0.8,0.1,1.4,0.4,1.8
		c0.3,0.5,0.7,0.7,1.5,0.7c0.4,0,0.8-0.1,1.2-0.2s0.8-0.4,1.2-0.7c0.4-0.3,0.8-0.6,1.2-0.9v-8H83.2z"/>
	<path fill="#245E39" d="M101.6,70L96,62.7l-1.7,1.8V70h-2.2V54.1h2.2v7.3l7.2-7.7l1.6,1.3l-5.6,6l6.8,8.9H101.6z"/>
	<path fill="#245E39" d="M115.8,58.7V70h-1.6l-0.4-1.5c-0.4,0.3-0.8,0.7-1.3,0.9c-0.5,0.3-1,0.5-1.5,0.7c-0.5,0.2-1,0.2-1.5,0.2
		c-0.9,0-1.5-0.2-2.1-0.5c-0.5-0.4-0.9-0.9-1.2-1.5c-0.2-0.6-0.4-1.4-0.4-2.2v-7.5h2.2v7.2c0,0.8,0.1,1.4,0.4,1.8
		c0.3,0.5,0.7,0.7,1.5,0.7c0.4,0,0.8-0.1,1.2-0.2s0.8-0.4,1.2-0.7c0.4-0.3,0.8-0.6,1.2-0.9v-8H115.8z"/>
	<path fill="#245E39" d="M118.6,70V58.7h1.6l0.4,1.5c0.4-0.4,0.8-0.7,1.3-1s1-0.5,1.5-0.7s1-0.2,1.5-0.2c0.9,0,1.5,0.2,2.1,0.5
		c0.5,0.4,0.9,0.9,1.2,1.5c0.2,0.6,0.4,1.4,0.4,2.2V70h-2.2v-7.2c0-0.8-0.1-1.4-0.4-1.8s-0.7-0.7-1.5-0.7c-0.4,0-0.8,0.1-1.2,0.2
		s-0.8,0.4-1.2,0.7c-0.4,0.3-0.8,0.6-1.2,0.9v8H118.6z"/>
	<path fill="#245E39" d="M131.3,67.7c0.3,0.2,0.7,0.3,1,0.4c0.3,0.1,0.7,0.2,1,0.3c0.3,0.1,0.7,0.1,1,0.1c0.5,0,0.9-0.1,1.3-0.2
		c0.4-0.1,0.6-0.3,0.9-0.5c0.2-0.2,0.3-0.5,0.3-0.7c0-0.3-0.1-0.6-0.3-0.8c-0.2-0.2-0.5-0.4-0.9-0.6c-0.4-0.2-0.8-0.4-1.3-0.5
		c-0.6-0.2-1.2-0.5-1.7-0.7c-0.6-0.3-1-0.7-1.4-1.1c-0.4-0.4-0.6-1-0.6-1.6c0-1,0.4-1.8,1.2-2.4s1.8-0.9,3.1-0.9
		c0.3,0,0.7,0,1.2,0.1c0.4,0.1,0.9,0.2,1.3,0.4c0.5,0.2,0.8,0.3,1.1,0.6l-0.7,1.5c-0.4-0.2-0.9-0.4-1.4-0.5c-0.5-0.2-1-0.2-1.6-0.2
		c-0.6,0-1.1,0.1-1.5,0.4c-0.4,0.3-0.6,0.6-0.6,1c0,0.3,0.2,0.6,0.7,0.9s1,0.5,1.7,0.7c0.6,0.2,1.2,0.5,1.8,0.8
		c0.6,0.3,1.1,0.7,1.4,1.2c0.4,0.5,0.6,1,0.6,1.6c0,1.1-0.4,1.9-1.2,2.5c-0.8,0.6-1.9,0.9-3.4,0.9c-0.3,0-0.7,0-1.2-0.1
		c-0.5-0.1-0.9-0.2-1.4-0.3c-0.5-0.2-0.9-0.3-1.2-0.6L131.3,67.7z"/>
	<path fill="#245E39" d="M146.5,60.5h-2.7v6c0,0.6,0.1,1,0.4,1.4c0.3,0.4,0.7,0.5,1.2,0.5c0.2,0,0.4,0,0.6-0.1
		c0.2-0.1,0.4-0.1,0.5-0.2l0.6,1.7c-0.1,0.1-0.3,0.1-0.5,0.2c-0.2,0.1-0.4,0.1-0.7,0.2c-0.2,0.1-0.5,0.1-0.7,0.1
		c-0.7,0-1.4-0.1-1.9-0.4c-0.5-0.3-1-0.7-1.3-1.2c-0.3-0.5-0.4-1.2-0.4-1.9v-6.3H140l0-1.7h1.6V56l2.2-0.5v3.3h2.1L146.5,60.5z"/>
	<path fill="#245E39" d="M150.7,67.6c0.3,0.3,0.4,0.7,0.4,1.2c0,0.5-0.1,1-0.3,1.6s-0.5,1.1-0.9,1.5c-0.4,0.5-0.8,0.8-1.3,1.1
		l-0.5-1c0.4-0.3,0.7-0.6,1-0.9s0.4-0.7,0.5-1.1c-0.2,0-0.4-0.1-0.5-0.2s-0.3-0.3-0.4-0.5c-0.1-0.2-0.2-0.4-0.2-0.7
		c0-0.2,0.1-0.5,0.2-0.7c0.1-0.2,0.3-0.4,0.5-0.5c0.2-0.1,0.5-0.2,0.7-0.2C150.1,67.2,150.4,67.3,150.7,67.6z"/>
	<path fill="#245E39" d="M159.3,70V54.1h4.5c1.1,0,2.1,0.2,3,0.5c0.9,0.3,1.6,0.9,2.2,1.6c0.5,0.7,0.8,1.7,0.8,2.9
		c0,0.9-0.2,1.6-0.5,2.3c-0.3,0.6-0.8,1.2-1.4,1.6c-0.6,0.4-1.2,0.7-2,0.9c-0.7,0.2-1.5,0.3-2.4,0.3h-2.1V70H159.3z M161.5,56v6.3
		h2.2c0.7,0,1.4-0.1,1.9-0.3c0.6-0.2,1-0.5,1.3-1s0.5-1.1,0.5-1.8c0-0.8-0.2-1.4-0.5-1.9c-0.3-0.5-0.7-0.8-1.3-1
		c-0.5-0.2-1.2-0.3-2-0.3H161.5z"/>
	<path fill="#245E39" d="M172.3,59.4c0.3-0.2,0.7-0.4,1.2-0.5c0.5-0.1,1-0.3,1.5-0.3c0.5-0.1,0.9-0.1,1.2-0.1c0.9,0,1.7,0.2,2.3,0.5
		c0.7,0.3,1.2,0.8,1.6,1.4s0.6,1.3,0.6,2V70h-1.6l-0.3-1.1c-0.4,0.3-0.9,0.7-1.5,0.9c-0.6,0.3-1.2,0.4-1.8,0.4c-1.3,0-2.3-0.3-3-1
		s-1-1.5-1-2.5c0-1.1,0.4-2,1.2-2.6c0.8-0.6,1.8-0.9,3-0.9h2.7v-0.1c0-0.8-0.2-1.4-0.5-1.9c-0.3-0.5-0.9-0.8-1.8-0.8
		c-0.7,0-1.3,0.1-1.8,0.2c-0.5,0.2-1,0.3-1.4,0.5L172.3,59.4z M173.8,67.6c0.1,0.3,0.3,0.5,0.6,0.7c0.3,0.2,0.6,0.3,1,0.3
		c0.6,0,1.1-0.1,1.6-0.4s1-0.6,1.3-1.1v-2.3h-2.7c-0.7,0-1.2,0.2-1.6,0.6c-0.4,0.4-0.5,0.9-0.5,1.4C173.6,67,173.7,67.3,173.8,67.6z
		"/>
	<path fill="#245E39" d="M183.4,70V58.7h1.3l0.7,1.8c0.3-0.2,0.7-0.5,1.1-0.8c0.4-0.3,0.9-0.5,1.4-0.7c0.5-0.2,0.9-0.3,1.3-0.3
		l0.5,1.8c-0.4,0-0.9,0.1-1.3,0.3c-0.5,0.2-1,0.4-1.4,0.7c-0.5,0.3-0.9,0.6-1.2,1V70H183.4z"/>
	<path fill="#245E39" d="M196.8,60.5h-2.7v6c0,0.6,0.1,1,0.4,1.4c0.3,0.4,0.7,0.5,1.2,0.5c0.2,0,0.4,0,0.6-0.1
		c0.2-0.1,0.4-0.1,0.5-0.2l0.6,1.7c-0.1,0.1-0.3,0.1-0.5,0.2c-0.2,0.1-0.4,0.1-0.7,0.2c-0.2,0.1-0.5,0.1-0.7,0.1
		c-0.7,0-1.4-0.1-1.9-0.4c-0.5-0.3-1-0.7-1.3-1.2c-0.3-0.5-0.4-1.2-0.4-1.9v-6.3h-1.6l0-1.7h1.6V56l2.2-0.5v3.3h2.1L196.8,60.5z"/>
	<path fill="#245E39" d="M199.4,56.3c-0.3-0.3-0.4-0.6-0.4-1c0-0.4,0.1-0.7,0.4-1c0.3-0.3,0.6-0.4,1-0.4c0.4,0,0.7,0.1,1,0.4
		c0.3,0.3,0.4,0.6,0.4,1c0,0.4-0.1,0.7-0.4,1c-0.3,0.3-0.6,0.4-1,0.4C199.9,56.7,199.6,56.5,199.4,56.3z M199.2,70V58.7h2.3V70
		H199.2z"/>
	<path fill="#245E39" d="M212.5,59.9l-6.4,8.3h6.2l0.2,1.8h-9l-0.3-1.2l6.3-8.3h-5.4l-0.5-1.8h8.6L212.5,59.9z"/>
	<path fill="#245E39" d="M214.5,56.3c-0.3-0.3-0.4-0.6-0.4-1c0-0.4,0.1-0.7,0.4-1c0.3-0.3,0.6-0.4,1-0.4c0.4,0,0.7,0.1,1,0.4
		c0.3,0.3,0.4,0.6,0.4,1c0,0.4-0.1,0.7-0.4,1c-0.3,0.3-0.6,0.4-1,0.4C215.1,56.7,214.8,56.5,214.5,56.3z M214.4,70V58.7h2.3V70
		H214.4z"/>
	<path fill="#245E39" d="M219.6,75.1V58.7h1.3l1,1.4v14.7L219.6,75.1z M220.3,60.4c0.3-0.5,0.7-0.8,1.2-1.1c0.5-0.3,1-0.5,1.4-0.7
		c0.5-0.1,0.9-0.2,1.2-0.2c1.2,0,2.2,0.2,3,0.7c0.8,0.5,1.5,1.2,1.9,2.1c0.5,0.9,0.7,2,0.7,3.2c0,1.2-0.2,2.2-0.7,3.1
		c-0.5,0.9-1.1,1.6-2,2.1c-0.8,0.5-1.8,0.7-3,0.7c-0.3,0-0.7-0.1-1.2-0.2c-0.5-0.1-1-0.3-1.4-0.6c-0.5-0.3-0.9-0.7-1.2-1.2l0.7-1.6
		c0.5,0.6,1,1,1.5,1.3c0.5,0.3,1.1,0.4,1.8,0.4c0.7,0,1.3-0.2,1.8-0.5s0.9-0.8,1.1-1.4c0.3-0.6,0.4-1.3,0.4-2c0-0.8-0.1-1.5-0.4-2.1
		c-0.3-0.6-0.6-1.1-1.1-1.5s-1.1-0.5-1.8-0.5c-0.7,0-1.3,0.1-1.7,0.4c-0.5,0.3-1,0.7-1.4,1.3L220.3,60.4z"/>
	<path fill="#245E39" d="M232.3,59.4c0.3-0.2,0.7-0.4,1.2-0.5c0.5-0.1,1-0.3,1.5-0.3c0.5-0.1,0.9-0.1,1.2-0.1c0.9,0,1.7,0.2,2.3,0.5
		c0.7,0.3,1.2,0.8,1.6,1.4s0.6,1.3,0.6,2V70h-1.6l-0.3-1.1c-0.4,0.3-0.9,0.7-1.5,0.9c-0.6,0.3-1.2,0.4-1.8,0.4c-1.3,0-2.3-0.3-3-1
		s-1-1.5-1-2.5c0-1.1,0.4-2,1.2-2.6c0.8-0.6,1.8-0.9,3-0.9h2.7v-0.1c0-0.8-0.2-1.4-0.5-1.9c-0.3-0.5-0.9-0.8-1.8-0.8
		c-0.7,0-1.3,0.1-1.8,0.2c-0.5,0.2-1,0.3-1.4,0.5L232.3,59.4z M233.8,67.6c0.1,0.3,0.3,0.5,0.6,0.7c0.3,0.2,0.6,0.3,1,0.3
		c0.6,0,1.1-0.1,1.6-0.4s1-0.6,1.3-1.1v-2.3h-2.7c-0.7,0-1.2,0.2-1.6,0.6c-0.4,0.4-0.5,0.9-0.5,1.4C233.6,67,233.6,67.3,233.8,67.6z
		"/>
	<path fill="#245E39" d="M248.9,60.5h-2.7v6c0,0.6,0.1,1,0.4,1.4c0.3,0.4,0.7,0.5,1.2,0.5c0.2,0,0.4,0,0.6-0.1
		c0.2-0.1,0.4-0.1,0.5-0.2l0.6,1.7c-0.1,0.1-0.3,0.1-0.5,0.2c-0.2,0.1-0.4,0.1-0.7,0.2c-0.2,0.1-0.5,0.1-0.7,0.1
		c-0.7,0-1.4-0.1-1.9-0.4c-0.5-0.3-1-0.7-1.3-1.2c-0.3-0.5-0.4-1.2-0.4-1.9v-6.3h-1.6l0-1.7h1.6V56l2.2-0.5v3.3h2.1L248.9,60.5z"/>
	<path fill="#245E39" d="M251.4,56.3c-0.3-0.3-0.4-0.6-0.4-1c0-0.4,0.1-0.7,0.4-1c0.3-0.3,0.6-0.4,1-0.4c0.4,0,0.7,0.1,1,0.4
		c0.3,0.3,0.4,0.6,0.4,1c0,0.4-0.1,0.7-0.4,1c-0.3,0.3-0.6,0.4-1,0.4C252,56.7,251.7,56.5,251.4,56.3z M251.3,70V58.7h2.3V70H251.3z
		"/>
	<path fill="#245E39" d="M261.3,70.3c-1.1,0-2.1-0.3-3-0.8c-0.8-0.5-1.5-1.2-1.9-2.1c-0.5-0.9-0.7-1.9-0.7-3.1
		c0-1.2,0.3-2.2,0.7-3.1c0.5-0.9,1.1-1.6,2-2.1c0.8-0.5,1.9-0.8,3-0.8s2.2,0.3,3,0.8c0.8,0.5,1.5,1.2,1.9,2.1
		c0.5,0.9,0.7,1.9,0.7,3.1c0,1.2-0.2,2.2-0.7,3.1c-0.5,0.9-1.1,1.6-2,2.1C263.5,70,262.4,70.3,261.3,70.3z M261.3,68.4
		c0.7,0,1.3-0.2,1.8-0.5c0.5-0.4,0.9-0.8,1.2-1.4c0.3-0.6,0.4-1.3,0.4-2c0-0.8-0.1-1.5-0.4-2.1c-0.3-0.6-0.6-1.1-1.1-1.4
		s-1.1-0.5-1.8-0.5c-0.7,0-1.3,0.2-1.8,0.5s-0.9,0.8-1.2,1.4c-0.3,0.6-0.4,1.3-0.4,2c0,0.8,0.1,1.5,0.4,2.1c0.3,0.6,0.6,1.1,1.1,1.5
		S260.6,68.4,261.3,68.4z"/>
	<path fill="#245E39" d="M269.1,70V58.7h1.6l0.4,1.5c0.4-0.4,0.8-0.7,1.3-1s1-0.5,1.5-0.7s1-0.2,1.5-0.2c0.9,0,1.5,0.2,2.1,0.5
		c0.5,0.4,0.9,0.9,1.2,1.5c0.2,0.6,0.4,1.4,0.4,2.2V70h-2.2v-7.2c0-0.8-0.1-1.4-0.4-1.8c-0.3-0.5-0.8-0.7-1.5-0.7
		c-0.4,0-0.8,0.1-1.2,0.2c-0.4,0.2-0.8,0.4-1.2,0.7c-0.4,0.3-0.8,0.6-1.2,0.9v8H269.1z"/>
	<path fill="#245E39" d="M296.8,58.7V70h-1.6l-0.4-1.5c-0.4,0.3-0.8,0.7-1.3,0.9c-0.5,0.3-1,0.5-1.5,0.7s-1,0.2-1.5,0.2
		c-0.9,0-1.5-0.2-2.1-0.5s-0.9-0.9-1.2-1.5c-0.2-0.6-0.4-1.4-0.4-2.2v-7.5h2.2v7.2c0,0.8,0.1,1.4,0.4,1.8c0.3,0.5,0.7,0.7,1.5,0.7
		c0.4,0,0.8-0.1,1.2-0.2s0.8-0.4,1.2-0.7c0.4-0.3,0.8-0.6,1.2-0.9v-8H296.8z"/>
	<path fill="#245E39" d="M299.6,70V58.7h1.6l0.4,1.5c0.4-0.4,0.8-0.7,1.3-1s1-0.5,1.5-0.7s1-0.2,1.5-0.2c0.9,0,1.5,0.2,2.1,0.5
		c0.5,0.4,0.9,0.9,1.2,1.5c0.2,0.6,0.4,1.4,0.4,2.2V70h-2.2v-7.2c0-0.8-0.1-1.4-0.4-1.8c-0.3-0.5-0.8-0.7-1.5-0.7
		c-0.4,0-0.8,0.1-1.2,0.2c-0.4,0.2-0.8,0.4-1.2,0.7c-0.4,0.3-0.8,0.6-1.2,0.9v8H299.6z"/>
	<path fill="#245E39" d="M321,68.3c-0.3,0.5-0.7,0.8-1.2,1.1s-1,0.5-1.4,0.7c-0.5,0.1-0.9,0.2-1.2,0.2c-1.1,0-2.1-0.3-3-0.8
		c-0.8-0.5-1.5-1.2-1.9-2.1c-0.5-0.9-0.7-2-0.7-3.2c0-1.2,0.2-2.2,0.7-3.1c0.5-0.9,1.1-1.6,2-2.1c0.8-0.5,1.8-0.7,3-0.7
		c0.3,0,0.7,0.1,1.2,0.2c0.5,0.1,1,0.3,1.5,0.6c0.5,0.3,0.9,0.7,1.2,1.2l-0.7,1.6c-0.5-0.6-1-1-1.5-1.3c-0.5-0.3-1.1-0.4-1.8-0.4
		c-0.7,0-1.3,0.2-1.8,0.5c-0.5,0.3-0.9,0.8-1.1,1.4c-0.3,0.6-0.4,1.3-0.4,2c0,0.8,0.1,1.5,0.4,2.1c0.3,0.6,0.6,1.1,1.1,1.5
		s1.1,0.5,1.8,0.5c0.7,0,1.3-0.1,1.7-0.4c0.5-0.3,1-0.7,1.4-1.3L321,68.3z M319.6,53.8l2.3-0.2V70h-1.3l-1-1.9V53.8z"/>
	<path fill="#245E39" d="M339,68.3c-0.3,0.5-0.7,0.8-1.2,1.1s-1,0.5-1.4,0.7c-0.5,0.1-0.9,0.2-1.2,0.2c-1.1,0-2.1-0.3-3-0.8
		c-0.8-0.5-1.5-1.2-1.9-2.1c-0.5-0.9-0.7-2-0.7-3.2c0-1.2,0.2-2.2,0.7-3.1c0.5-0.9,1.1-1.6,2-2.1c0.8-0.5,1.8-0.7,3-0.7
		c0.3,0,0.7,0.1,1.2,0.2c0.5,0.1,1,0.3,1.5,0.6c0.5,0.3,0.9,0.7,1.2,1.2l-0.7,1.6c-0.5-0.6-1-1-1.5-1.3c-0.5-0.3-1.1-0.4-1.8-0.4
		c-0.7,0-1.3,0.2-1.8,0.5c-0.5,0.3-0.9,0.8-1.1,1.4c-0.3,0.6-0.4,1.3-0.4,2c0,0.8,0.1,1.5,0.4,2.1c0.3,0.6,0.6,1.1,1.1,1.5
		s1.1,0.5,1.8,0.5c0.7,0,1.3-0.1,1.7-0.4c0.5-0.3,1-0.7,1.4-1.3L339,68.3z M337.7,53.8l2.3-0.2V70h-1.3l-1-1.9V53.8z"/>
	<path fill="#245E39" d="M343.1,56.3c-0.3-0.3-0.4-0.6-0.4-1c0-0.4,0.1-0.7,0.4-1c0.3-0.3,0.6-0.4,1-0.4c0.4,0,0.7,0.1,1,0.4
		c0.3,0.3,0.4,0.6,0.4,1c0,0.4-0.1,0.7-0.4,1c-0.3,0.3-0.6,0.4-1,0.4C343.7,56.7,343.3,56.5,343.1,56.3z M342.9,70V58.7h2.3V70
		H342.9z"/>
	<path fill="#245E39" d="M356.8,68.3c-0.3,0.5-0.7,0.8-1.2,1.1s-1,0.5-1.4,0.7c-0.5,0.1-0.9,0.2-1.2,0.2c-1.1,0-2.1-0.3-3-0.8
		c-0.8-0.5-1.5-1.2-1.9-2.1c-0.5-0.9-0.7-2-0.7-3.2c0-1.2,0.2-2.2,0.7-3.1c0.5-0.9,1.1-1.6,2-2.1c0.8-0.5,1.8-0.7,3-0.7
		c0.3,0,0.7,0.1,1.2,0.2c0.5,0.1,1,0.3,1.5,0.6c0.5,0.3,0.9,0.7,1.2,1.2l-0.7,1.6c-0.5-0.6-1-1-1.5-1.3c-0.5-0.3-1.1-0.4-1.8-0.4
		c-0.7,0-1.3,0.2-1.8,0.5c-0.5,0.3-0.9,0.8-1.1,1.4c-0.3,0.6-0.4,1.3-0.4,2c0,0.8,0.1,1.5,0.4,2.1c0.3,0.6,0.6,1.1,1.1,1.5
		s1.1,0.5,1.8,0.5c0.7,0,1.3-0.1,1.7-0.4c0.5-0.3,1-0.7,1.4-1.3L356.8,68.3z M357.6,71c0,0.8-0.2,1.6-0.6,2.2
		c-0.4,0.7-1,1.2-1.8,1.6c-0.8,0.4-1.8,0.6-2.9,0.6c-0.2,0-0.5,0-0.9-0.1c-0.3,0-0.7-0.1-1.1-0.2c-0.4-0.1-0.8-0.2-1.1-0.3
		c-0.4-0.1-0.7-0.3-0.9-0.5l0.7-1.6c0.5,0.2,1.1,0.5,1.5,0.6c0.5,0.2,1.1,0.3,1.7,0.3c0.9,0,1.7-0.2,2.3-0.7
		c0.6-0.4,0.9-1.1,0.9-1.9V60.4l1-1.7h1.3V71z"/>
	<path fill="#245E39" d="M360.7,56.3c-0.3-0.3-0.4-0.6-0.4-1c0-0.4,0.1-0.7,0.4-1c0.3-0.3,0.6-0.4,1-0.4c0.4,0,0.7,0.1,1,0.4
		c0.3,0.3,0.4,0.6,0.4,1c0,0.4-0.1,0.7-0.4,1c-0.3,0.3-0.6,0.4-1,0.4C361.3,56.7,361,56.5,360.7,56.3z M360.6,70V58.7h2.3V70H360.6z
		"/>
	<path fill="#245E39" d="M371.2,60.5h-2.7v6c0,0.6,0.1,1,0.4,1.4c0.3,0.4,0.7,0.5,1.2,0.5c0.2,0,0.4,0,0.6-0.1
		c0.2-0.1,0.4-0.1,0.5-0.2l0.6,1.7c-0.1,0.1-0.3,0.1-0.5,0.2c-0.2,0.1-0.4,0.1-0.7,0.2c-0.2,0.1-0.5,0.1-0.7,0.1
		c-0.7,0-1.4-0.1-1.9-0.4c-0.5-0.3-1-0.7-1.3-1.2c-0.3-0.5-0.4-1.2-0.4-1.9v-6.3h-1.6l0-1.7h1.6V56l2.2-0.5v3.3h2L371.2,60.5z"/>
	<path fill="#245E39" d="M374,59.4c0.3-0.2,0.7-0.4,1.2-0.5c0.5-0.1,1-0.3,1.5-0.3s0.9-0.1,1.2-0.1c0.9,0,1.7,0.2,2.3,0.5
		c0.7,0.3,1.2,0.8,1.6,1.4s0.6,1.3,0.6,2V70h-1.6l-0.3-1.1c-0.4,0.3-0.9,0.7-1.5,0.9c-0.6,0.3-1.2,0.4-1.8,0.4c-1.3,0-2.3-0.3-3-1
		c-0.6-0.7-1-1.5-1-2.5c0-1.1,0.4-2,1.2-2.6c0.8-0.6,1.8-0.9,3-0.9h2.7v-0.1c0-0.8-0.2-1.4-0.5-1.9s-0.9-0.8-1.8-0.8
		c-0.7,0-1.3,0.1-1.8,0.2c-0.5,0.2-1,0.3-1.4,0.5L374,59.4z M375.5,67.6c0.1,0.3,0.3,0.5,0.6,0.7c0.3,0.2,0.6,0.3,1,0.3
		c0.6,0,1.1-0.1,1.6-0.4s1-0.6,1.3-1.1v-2.3h-2.7c-0.7,0-1.2,0.2-1.6,0.6c-0.4,0.4-0.5,0.9-0.5,1.4C375.3,67,375.4,67.3,375.5,67.6z
		"/>
	<path fill="#245E39" d="M385.3,70V53.8l2.2-0.3V70H385.3z"/>
	<path fill="#245E39" d="M392.2,64.8c0.1,0.7,0.2,1.3,0.5,1.8c0.3,0.5,0.7,1,1.2,1.3c0.5,0.3,1.2,0.5,2.1,0.5c0.7,0,1.2-0.1,1.7-0.3
		c0.5-0.2,1-0.4,1.7-0.7l0.7,1.6c-0.4,0.2-0.8,0.4-1.2,0.6c-0.4,0.2-0.9,0.3-1.4,0.5c-0.5,0.1-1,0.2-1.5,0.2c-1.3,0-2.5-0.2-3.4-0.7
		c-0.9-0.5-1.6-1.2-2.1-2.1c-0.5-0.9-0.7-1.9-0.7-3.1c0-1.2,0.2-2.2,0.7-3.1c0.4-0.9,1.1-1.6,1.9-2.1c0.8-0.5,1.8-0.8,2.9-0.8
		c1.2,0,2.1,0.3,2.9,0.9c0.7,0.6,1.2,1.3,1.6,2.3c0.3,0.9,0.5,2,0.5,3.1v0.2H392.2z M398,63.3c-0.1-0.6-0.3-1.2-0.5-1.6
		c-0.2-0.5-0.5-0.8-0.9-1c-0.4-0.2-0.9-0.4-1.4-0.4c-0.6,0-1.1,0.1-1.5,0.4c-0.4,0.2-0.8,0.6-1,1c-0.2,0.5-0.4,1-0.5,1.6H398z"/>
	<path fill="#245E39" d="M402.3,70V58.7h1.6l0.4,1.5c0.4-0.4,0.8-0.7,1.3-1s1-0.5,1.5-0.7s1-0.2,1.5-0.2c0.9,0,1.5,0.2,2.1,0.5
		c0.5,0.4,0.9,0.9,1.2,1.5c0.2,0.6,0.4,1.4,0.4,2.2V70H410v-7.2c0-0.8-0.1-1.4-0.4-1.8c-0.3-0.5-0.8-0.7-1.5-0.7
		c-0.4,0-0.8,0.1-1.2,0.2c-0.4,0.2-0.8,0.4-1.2,0.7c-0.4,0.3-0.8,0.6-1.2,0.9v8H402.3z"/>
	<path fill="#245E39" d="M425.5,54.1c1.1,0,2.1,0.2,3,0.5c0.9,0.3,1.6,0.8,2.2,1.5c0.5,0.7,0.8,1.6,0.8,2.7c0,1-0.3,1.9-0.8,2.6
		c-0.5,0.7-1.2,1.2-2,1.5l4,7h-2.4l-3.5-6.4c-0.1,0-0.3,0-0.7,0c-0.3,0-0.6,0-0.8,0h-2.1V70H421V54.1H425.5z M423.2,56v5.8h2.2
		c0.7,0,1.3-0.1,1.9-0.3s1-0.5,1.4-0.9s0.5-1,0.5-1.7c0-0.7-0.2-1.3-0.5-1.7c-0.3-0.4-0.7-0.7-1.3-0.9c-0.6-0.2-1.2-0.3-1.9-0.3
		H423.2z"/>
	<path fill="#245E39" d="M434.7,59.4c0.3-0.2,0.7-0.4,1.2-0.5c0.5-0.1,1-0.3,1.5-0.3s0.9-0.1,1.2-0.1c0.9,0,1.7,0.2,2.3,0.5
		c0.7,0.3,1.2,0.8,1.6,1.4s0.6,1.3,0.6,2V70h-1.6l-0.3-1.1c-0.4,0.3-0.9,0.7-1.5,0.9c-0.6,0.3-1.2,0.4-1.8,0.4c-1.3,0-2.3-0.3-3-1
		c-0.6-0.7-1-1.5-1-2.5c0-1.1,0.4-2,1.2-2.6c0.8-0.6,1.8-0.9,3-0.9h2.7v-0.1c0-0.8-0.2-1.4-0.5-1.9s-0.9-0.8-1.8-0.8
		c-0.7,0-1.3,0.1-1.8,0.2c-0.5,0.2-1,0.3-1.4,0.5L434.7,59.4z M435.3,55.4c-0.2-0.2-0.4-0.5-0.4-0.9c0-0.3,0.1-0.6,0.4-0.9
		c0.2-0.2,0.5-0.4,0.9-0.4c0.4,0,0.7,0.1,0.9,0.4c0.2,0.2,0.4,0.5,0.4,0.9c0,0.3-0.1,0.6-0.4,0.9c-0.2,0.2-0.5,0.4-0.9,0.4
		C435.9,55.8,435.6,55.7,435.3,55.4z M436.3,67.6c0.1,0.3,0.3,0.5,0.6,0.7c0.3,0.2,0.6,0.3,1,0.3c0.6,0,1.1-0.1,1.6-0.4
		s1-0.6,1.3-1.1v-2.3h-2.7c-0.7,0-1.2,0.2-1.6,0.6c-0.4,0.4-0.5,0.9-0.5,1.4C436.1,67,436.1,67.3,436.3,67.6z M439.4,55.4
		c-0.2-0.2-0.4-0.5-0.4-0.9c0-0.3,0.1-0.6,0.4-0.9s0.5-0.4,0.9-0.4c0.4,0,0.7,0.1,0.9,0.4c0.2,0.2,0.4,0.5,0.4,0.9
		c0,0.3-0.1,0.6-0.4,0.9c-0.2,0.2-0.5,0.4-0.9,0.4C439.9,55.8,439.6,55.7,439.4,55.4z"/>
	<path fill="#245E39" d="M455.6,58.7V70h-1.6l-0.4-1.5c-0.4,0.3-0.8,0.7-1.3,0.9c-0.5,0.3-1,0.5-1.5,0.7s-1,0.2-1.5,0.2
		c-0.9,0-1.5-0.2-2.1-0.5s-0.9-0.9-1.2-1.5c-0.2-0.6-0.4-1.4-0.4-2.2v-7.5h2.2v7.2c0,0.8,0.1,1.4,0.4,1.8c0.3,0.5,0.7,0.7,1.5,0.7
		c0.4,0,0.8-0.1,1.2-0.2s0.8-0.4,1.2-0.7c0.4-0.3,0.8-0.6,1.2-0.9v-8H455.6z"/>
	<path fill="#245E39" d="M458.4,70V58.7h1.6l0.4,1.5c0.4-0.4,0.8-0.7,1.3-1s0.9-0.5,1.4-0.7s1-0.2,1.4-0.2c0.8,0,1.5,0.2,2,0.5
		c0.5,0.4,0.9,0.9,1.2,1.5c0.2,0.6,0.4,1.4,0.4,2.2V70h-2.2v-7.2c0-0.5-0.1-1-0.2-1.3c-0.1-0.4-0.3-0.7-0.5-0.9
		c-0.3-0.2-0.6-0.3-1.1-0.3c-0.3,0-0.7,0.1-1.1,0.2c-0.4,0.2-0.8,0.4-1.2,0.7c-0.4,0.3-0.8,0.6-1.2,0.9v8H458.4z M467.6,60.2
		c0.4-0.4,0.8-0.7,1.3-1s0.9-0.5,1.4-0.7s1-0.2,1.4-0.2c0.8,0,1.5,0.2,2,0.5c0.5,0.4,0.9,0.9,1.2,1.5c0.2,0.6,0.4,1.4,0.4,2.2V70
		h-2.2v-7.2c0-0.5-0.1-1-0.2-1.3c-0.1-0.4-0.3-0.7-0.5-0.9c-0.3-0.2-0.6-0.3-1.1-0.3c-0.3,0-0.7,0.1-1.1,0.2s-0.8,0.4-1.2,0.7
		c-0.4,0.3-0.8,0.6-1.2,0.9L467.6,60.2z"/>
	<path fill="#245E39" d="M479.7,64.8c0.1,0.7,0.2,1.3,0.5,1.8c0.3,0.5,0.7,1,1.2,1.3c0.5,0.3,1.2,0.5,2.1,0.5c0.7,0,1.2-0.1,1.7-0.3
		c0.5-0.2,1-0.4,1.7-0.7l0.7,1.6c-0.4,0.2-0.8,0.4-1.2,0.6c-0.4,0.2-0.9,0.3-1.4,0.5c-0.5,0.1-1,0.2-1.5,0.2c-1.3,0-2.5-0.2-3.4-0.7
		c-0.9-0.5-1.6-1.2-2.1-2.1c-0.5-0.9-0.7-1.9-0.7-3.1c0-1.2,0.2-2.2,0.7-3.1c0.4-0.9,1.1-1.6,1.9-2.1c0.8-0.5,1.8-0.8,2.9-0.8
		c1.2,0,2.1,0.3,2.9,0.9c0.7,0.6,1.2,1.3,1.6,2.3c0.3,0.9,0.5,2,0.5,3.1v0.2H479.7z M485.5,63.3c-0.1-0.6-0.3-1.2-0.5-1.6
		c-0.2-0.5-0.5-0.8-0.9-1c-0.4-0.2-0.9-0.4-1.4-0.4c-0.6,0-1.1,0.1-1.5,0.4c-0.4,0.2-0.8,0.6-1,1c-0.2,0.5-0.4,1-0.5,1.6H485.5z"/>
	<path fill="#245E39" d="M489.8,70V58.7h1.6l0.4,1.5c0.4-0.4,0.8-0.7,1.3-1s1-0.5,1.5-0.7s1-0.2,1.5-0.2c0.9,0,1.5,0.2,2.1,0.5
		c0.5,0.4,0.9,0.9,1.2,1.5c0.2,0.6,0.4,1.4,0.4,2.2V70h-2.2v-7.2c0-0.8-0.1-1.4-0.4-1.8c-0.3-0.5-0.8-0.7-1.5-0.7
		c-0.4,0-0.8,0.1-1.2,0.2c-0.4,0.2-0.8,0.4-1.2,0.7c-0.4,0.3-0.8,0.6-1.2,0.9v8H489.8z"/>
</g>
</svg>
